<?xml version="1.0" encoding="UTF-8" standalone="no"?>
<!-- Generator: Adobe Illustrator 21.1.0, SVG Export Plug-In . SVG Version: 6.00 Build 0)  -->

<svg
   xmlns:dc="http://purl.org/dc/elements/1.1/"
   xmlns:cc="http://creativecommons.org/ns#"
   xmlns:rdf="http://www.w3.org/1999/02/22-rdf-syntax-ns#"
   xmlns:svg="http://www.w3.org/2000/svg"
   xmlns="http://www.w3.org/2000/svg"
   xmlns:sodipodi="http://sodipodi.sourceforge.net/DTD/sodipodi-0.dtd"
   xmlns:inkscape="http://www.inkscape.org/namespaces/inkscape"
   version="1.1"
   id="Ebene_1"
   x="0px"
   y="0px"
   viewBox="0 0 1701.868 276.45941"
   xml:space="preserve"
   inkscape:version="0.91 r13725"
   sodipodi:docname="Meteor_Vector_V2_center.svg"
   width="1701.868"
   height="276.45941"><metadata
   id="metadata4185"><rdf:RDF><cc:Work
       rdf:about=""><dc:format>image/svg+xml</dc:format><dc:type
         rdf:resource="http://purl.org/dc/dcmitype/StillImage" /><dc:title /></cc:Work></rdf:RDF></metadata><defs
   id="defs4183">
	
	

	





</defs><sodipodi:namedview
   pagecolor="#ffffff"
   bordercolor="#666666"
   borderopacity="1"
   objecttolerance="10"
   gridtolerance="10"
   guidetolerance="10"
   inkscape:pageopacity="0"
   inkscape:pageshadow="2"
   inkscape:window-width="1600"
   inkscape:window-height="837"
   id="namedview4181"
   showgrid="false"
   fit-margin-top="0"
   fit-margin-left="0"
   fit-margin-right="0"
   fit-margin-bottom="0"
   inkscape:zoom="0.52314815"
   inkscape:cx="892.21053"
   inkscape:cy="121.62757"
   inkscape:window-x="-8"
   inkscape:window-y="-8"
   inkscape:window-maximized="1"
   inkscape:current-layer="g4192" />
<style
   type="text/css"
   id="style4137">
	.st0{fill:#F70000;}
	.st1{fill:none;}
</style>

















<g
   id="g4162"><g
     id="g4192"><g
       id="g4208"><path
         style="fill:#f70000"
         inkscape:connector-curvature="0"
         id="path4139"
         d="m 1012.5,111.53185 c -14.9,0 -29.4,0 -44.5,0 6.2,-31.300002 21.4,-56.700002 45.5,-78.600002 -3.1,-0.1 -5,-0.3 -6.8,-0.3 -38.6,0 -77.2,0 -115.8,0 -127.4,0 -254.7,0.1 -382.1,0 -70.7,-0.1 -141.4,0 -212.2,-0.7 -45.6,-0.4 -91.3,-1.5 -136.9,-3.2 -33.5,-1.3 -67,-4 -100.4,-6.4 -19.8,-1.4 -39.5,-3.6 -59.3,-6.1 6.7,-0.7 13.4,-1.4 20,-2 18.9,-1.7 37.7,-3.5 56.6,-4.9999999 16.4,-1.3 32.7,-2.8 49.1,-3.4 46,-1.7 91.9,-3.6 137.9,-4.3 64.4,-0.99999996 128.8,-1.19999996 193.2,-1.29999996 214.9,-0.2 429.8,-0.1 644.6,-0.1 63.8,0 118.6,41.89999986 134.2,103.10000186 20.4,80 -32,156 -107.8,169.7 -5.7,1 -11.4,1.7 -17.2,2 -43,2.7 -86.1,1.2 -129.2,0.2 -24.9,-0.6 -49.8,-1.2 -74.6,-2.5 -24.7,-1.3 -49.3,-3.2 -73.9,-5.1 -17.6,-1.3 -35.2,-3.1 -52.8,-4.6 -4.8,-0.4 -9.7,-1 -14.8,-1.5 3.3,-1.7 35.1,-5.1 61.9,-6.9 21.1,-1.4 42.1,-3.2 63.1,-4.4 20.9,-1.2 41.8,-2.1 62.7,-2.8 20.8,-0.7 41.7,-1.1 62.8,-2.1 -26,-22.7 -42.8,-50.8 -48.7,-84.8 4.4,0 36.4,0 45.1,0 17,56.1 71,73.5 107.5,65.8 42.7,-9.1 74.8,-45.8 73.8,-92.1 -1,-47.800002 -35.4,-81.500002 -76.3,-89.000002 -38.1,-7.1 -89.1,13.4 -104.7,66.400002 z"
         class="st0" /><path
         inkscape:connector-curvature="0"
         id="path4141"
         d="m 1022.4,152.63185 c -31,0 -61.6,0 -92.9,0 -2.8,-10.9 -5.6,-21.6 -8.5,-33.2 34.2,-0.3 67.9,-0.1 101.4,-0.3 10.8,-45.100002 53,-70.000002 93.6,-62.500002 41.1,7.6 67,43.600002 66.3,80.700002 -0.7,38.5 -29.4,72 -66.7,78.2 -41.2,6.7 -82.5,-18.3 -93.2,-62.9 z" /><path
         inkscape:connector-curvature="0"
         id="path4143"
         d="m 812.1,44.231848 c 42.3,0 83.9,0 125.8,0 0,10.5 0,20.7 0,31.4 -30.7,0 -61.3,0 -92.5,0 -0.5,15 -0.1,29.400002 -0.3,44.100002 23.1,0 45.4,-0.7 68.4,-0.7 2.7,10.6 5.5,21.8 8.4,33.2 -25.7,0.5 -50.9,-0.7 -76.4,-0.5 0,15.8 0,31.2 0,47.3 30.6,0 61.3,0 92.4,0 0,10.9 0,21.9 0,32.1 -5,0 -119.1,0 -125.9,0 0,-26.1 0,-53 0,-79.8 -21.3,-0.5 -41.9,-1 -62.9,-1.5 0,-9.4 0,-18.3 0,-27.8 20.9,-0.5 41.6,-1 62.9,-1.5 0.1,-25.700002 0.1,-50.800002 0.1,-76.300002 z" /><path
         inkscape:connector-curvature="0"
         id="path4145"
         d="m 1362.6,168.93185 c 24.6,-14.5 37.2,-43.6 31.3,-71.500002 -6.4,-30.4 -34.1,-53.5 -65,-53.4 -22,0 -44,0 -66,0 -1.4,0 -2.8,0.2 -4.4,0.4 l 0,186.800002 31.9,0 -0.1,-77.9 c 0,-12.8 0,-25.6 0,-38.4 0.1,-12.9 -0.3,-25.800002 0.2,-39.000002 11.5,0 22.3,0 33.1,0 2.7,0 5.4,-0.1 8.1,0.2 17.6,1.8 31.4,17.1 31.5,34.900002 0.1,18.2 -13.4,33.8 -31.2,35.5 -4.7,0.5 -13.3,0.8 -18,0.7 -3.3,8.3 -8.8,23.2 -12.1,31.6 5.8,0 15.8,0 21.3,-0.1 0,0 0.1,0 0.1,0 0,0.1 0.1,0.1 0.1,0.2 9.5,15.1 24,37.4 33.6,52.4 9.9,-0.1 24.1,0 34,0 1.2,0 2.6,0 4.3,0 -12.7,-19.7 -25.4,-39.5 -38,-59.2 2.2,-1.4 3.8,-2.3 5.3,-3.2 z" /><path
         inkscape:connector-curvature="0"
         id="path4147"
         d="m 553.7,135.93185 c 49.8,-5.1 99.6,-10.2 150.2,-12.1 0,8.1 0,15.9 0,24.3 -50.3,-2 -100.2,-7.1 -150.2,-12.2 z" /><path
         style="fill:none"
         inkscape:connector-curvature="0"
         id="path4149"
         d="M 1013.3,160.83185"
         class="st1" /><path
         style="fill:none"
         inkscape:connector-curvature="0"
         id="path4151"
         d="M 967.3,160.83185"
         class="st1" /><line
         style="fill:none"
         id="line4153"
         y2="46.831848"
         x2="346.90002"
         y1="46.831848"
         x1="346.90002"
         class="st1" /><rect
         x="303.70001"
         y="44.431824"
         class="st1"
         width="212"
         height="186.8"
         id="rect4157"
         style="fill:none" /><path
         d="m 499.5,44.43185 0,186.2 -31.9,0 0,-131.9 -61.4,95 -61.2,-95 0,131.9 -31.9,0 0,-186.2 34.8,0 58.3,90.4 58.5,-90.4 34.8,0 z"
         id="path4159"
         inkscape:connector-curvature="0" /><path
         d="m 797.3,76.23185 -54.6,0 0,154.5 -31.9,0 0,-154.5 -54.8,0 0,-32 54.8,0 31.9,0 54.5,0 0,32 z"
         id="path4163"
         inkscape:connector-curvature="0" /><rect
         id="rect4165"
         height="186.89999"
         width="33.700001"
         y="44.331848"
         x="516.29999" /><rect
         id="rect4167"
         height="32.299999"
         width="127.4"
         y="44.331848"
         x="516.29999" /><rect
         id="rect4169"
         height="32.299999"
         width="127.4"
         y="198.83185"
         x="516.29999" /></g></g></g>
</svg>
